<?xml version="1.0" standalone="no"?>
<!DOCTYPE svg PUBLIC "-//W3C//DTD SVG 20010904//EN"
 "http://www.w3.org/TR/2001/REC-SVG-20010904/DTD/svg10.dtd">
<svg version="1.0" xmlns="http://www.w3.org/2000/svg"
 width="700.000000pt" height="700.000000pt" viewBox="0 0 700.000000 700.000000"
 preserveAspectRatio="xMidYMid meet">
<metadata>
Created by potrace 1.11, written by Peter Selinger 2001-2013
</metadata>
<g transform="translate(0.000000,700.000000) scale(0.100000,-0.100000)"
fill="#000000" stroke="none">
<path d="M1320 4989 c-85 -13 -105 -17 -163 -38 -197 -69 -365 -231 -441 -424
-54 -136 -56 -166 -52 -742 2 -291 6 -548 10 -570 4 -22 11 -69 17 -105 60
-378 206 -720 443 -1035 72 -95 283 -310 381 -387 322 -252 734 -424 1162
-484 169 -23 491 -23 612 1 12 2 43 7 68 9 71 9 209 44 323 83 406 138 747
405 1004 788 46 68 158 283 184 355 47 125 93 291 107 385 2 11 6 43 10 70 3
28 9 66 12 85 7 44 10 459 3 560 -13 201 43 330 181 420 198 128 432 66 527
-138 50 -107 27 -230 -54 -302 -60 -52 -96 -63 -224 -65 -92 -2 -124 -6 -163
-23 -166 -74 -252 -246 -211 -422 32 -138 148 -245 290 -269 70 -12 261 -7
324 7 25 6 56 13 70 15 54 10 189 69 265 116 97 60 210 164 275 251 57 77 128
214 146 280 2 8 11 40 19 70 26 92 37 291 22 370 -3 14 -8 43 -12 65 -24 133
-115 327 -220 464 -47 62 -236 231 -259 231 -2 0 -31 15 -64 34 -160 90 -319
130 -522 131 -162 0 -203 -5 -322 -39 -234 -68 -470 -232 -615 -426 -68 -91
-139 -228 -171 -330 -18 -58 -27 -93 -48 -195 -3 -16 -8 -154 -9 -305 -3 -266
-9 -408 -20 -460 -3 -14 -7 -36 -10 -50 -64 -344 -299 -656 -610 -813 -465
-233 -1110 -145 -1556 213 -278 222 -469 585 -505 955 -7 73 -12 768 -6 796 3
14 30 15 225 13 265 -3 1204 -15 1332 -18 50 0 115 4 145 10 194 38 338 212
341 411 2 77 -6 116 -40 188 -57 122 -188 223 -311 241 -49 6 -193 9 -1055 19
-314 4 -619 8 -680 9 -60 1 -130 -1 -155 -5z"/>
</g>
</svg>
