<svg xmlns="http://www.w3.org/2000/svg" viewBox="0 0 200 200"><defs><style>.cls-1{fill:#352741;}</style></defs><title>fb</title><g id="logo"><path class="cls-1" d="M155.25,5.5H44.45A41.1,41.1,0,0,0,3.35,46.6V157.4a41.1,41.1,0,0,0,41.1,41.1H103V97.17H82.48V74.36H103v-9.6q0-16.58,10.38-27.14t31.37-10.56q4.59,0,9.18.36t8.93.6V51.35c-4-.48-8.22-1.68-12.56-1.68-4.67,0-7.6.13-10,3.24-3.67,4.7-3,8.89-3,14v7.44h23.66l-5.81,23.27-17.85-.46V198.5h18a41.1,41.1,0,0,0,41.1-41.1V46.6A41.1,41.1,0,0,0,155.25,5.5Z"/></g></svg>
