<svg xmlns="http://www.w3.org/2000/svg" viewBox="0 0 200 200"><defs><style>.cls-1{fill:#6a4d84;}</style></defs><title>kurv</title><g id="logo"><path id="Shape" class="cls-1" d="M145.78,176.15a16.86,16.86,0,0,1-16.53-17.1,17.4,17.4,0,0,1,2.29-8.62l-36.83,0A17.29,17.29,0,0,1,97,159a16.55,16.55,0,1,1-33.09,0,17.41,17.41,0,0,1,2.38-8.79,17.15,17.15,0,0,1-14.6-17.14l.1-92.7L32,31.67a4.12,4.12,0,0,1-2.2-2.29,4.33,4.33,0,0,1,0-3.26,4.07,4.07,0,0,1,3.77-2.58,3.83,3.83,0,0,1,1.6.34L57.5,33.61l.21.1.07,0,.06,0,0,0,0,0,.06,0a1.67,1.67,0,0,1,.24.16l.09.08.09.08.06.05a.15.15,0,0,1,.06,0,1.2,1.2,0,0,1,.21.17l.09.1.18.19.1.09a.21.21,0,0,0,.06.1l.06.09,0,.06.06.09,0,0,0,0a.41.41,0,0,1,0,.09.57.57,0,0,1,.12.18.09.09,0,0,1,0,.06.16.16,0,0,0,0,.06,1.23,1.23,0,0,1,.12.26V36l.09.28v.16a.11.11,0,0,0,0,.08v0l0,.14v.14a.33.33,0,0,1,0,.14.28.28,0,0,1,0,.13,1.6,1.6,0,0,1,0,.44l0,14.85L163.12,67.24h.12a.5.5,0,0,1,.24,0h.05l.1,0a.51.51,0,0,1,.21.06.16.16,0,0,0,.09,0l.09,0,.18.1.19.09.18.1a.76.76,0,0,0,.19.12l.07.05.08,0,.08,0,.1.07a.23.23,0,0,1,.07.07h0l.06,0,.07.08,0,0,0,0,.06.06a.3.3,0,0,1,.08.08.43.43,0,0,0,0,.07.34.34,0,0,1,.08.09l0,.06h0l.07.08a.61.61,0,0,1,.12.16l.06.1.06.09a.35.35,0,0,0,.05.08s0,0,0,.08a1.51,1.51,0,0,1,.09.18.65.65,0,0,1,.09.16l.09.22a.19.19,0,0,1,0,.1l0,.09a.07.07,0,0,0,0,.06v0l0,.1a.11.11,0,0,0,0,.08v.06a.24.24,0,0,0,0,.08v.41a.58.58,0,0,1,0,.19l0,35.72A17,17,0,0,1,149.72,124l-81.27-.09a16.55,16.55,0,0,1-8.56-2.39V133a8.71,8.71,0,0,0,8.51,8.91h0l77.39.08a17.09,17.09,0,0,1,0,34.16Zm.05-25.73a8.62,8.62,0,1,0,8.34,8.9v-.27a8.49,8.49,0,0,0-8.32-8.63Zm-65.37-.07a8.62,8.62,0,1,0,8.33,8.91V159a8.5,8.5,0,0,0-8.32-8.63ZM60,60.94l-.05,45.73a8.71,8.71,0,0,0,8.55,8.86l81.37.09a8.73,8.73,0,0,0,8.57-8.86l0-31.7Z"/></g></svg>
