<svg xmlns="http://www.w3.org/2000/svg" viewBox="0 0 200 200"><defs><style>.cls-1{fill:#aa8dc1;}</style></defs><title>logo_lille</title><g id="logo"><g id="fund_endeliug_logo" data-name="fund endeliug logo"><path class="cls-1" d="M89.4,82.4l-21.5-.31-21.57-.25-5.4-.08h-.68c-.18,0-.08,0,0,0h.12a3.79,3.79,0,0,0,1.4-.4A3,3,0,0,0,43,80a3.29,3.29,0,0,0,.31-.93,1,1,0,0,0,0-.24.55.55,0,0,0,0-.22v-.06s0-.07,0,0v1l0,21.42a42,42,0,0,0,3.35,16.3,38.41,38.41,0,0,0,4,7.2c.38.57.8,1.11,1.23,1.65s.87,1,1.31,1.57a35.69,35.69,0,0,0,2.91,3,40.88,40.88,0,0,0,6.64,5,50.75,50.75,0,0,0,7.66,3.62c.66.26,1.36.44,2,.67s1.37.45,2.07.6l2.09.53,2.11.38,1,.2,1.07.11,2.12.24a37.36,37.36,0,0,0,4.23.07A39.32,39.32,0,0,0,95.39,141a32,32,0,0,0,3.82-1.21l.94-.34a6,6,0,0,0,.91-.38l1.77-.85A31.61,31.61,0,0,0,114.4,128a34.92,34.92,0,0,0,3.7-6.85,36.24,36.24,0,0,0,2.07-7.59c.2-1.31.33-2.64.41-4s.08-2.46.07-4.46l0-5.39V96.67l0-.55.06-1.09c.05-.73.1-1.46.17-2.19.18-1.45.5-2.9.8-4.34s.88-2.82,1.37-4.21,1.22-2.69,1.93-4c.38-.63.77-1.25,1.17-1.87a16,16,0,0,1,1.25-1.8A34,34,0,0,1,141.07,66a19,19,0,0,1,2.05-.81c.7-.23,1.41-.44,2.12-.65a30.22,30.22,0,0,1,4.35-.89,13.8,13.8,0,0,1,2.23-.2c.75,0,1.49-.06,2.24-.07,1.49,0,3,.21,4.46.36s2.91.62,4.35,1,2.75,1,4.1,1.54a30.92,30.92,0,0,1,7.59,4.84,28.08,28.08,0,0,1,3.29,3.42c.49.6.86,1.12,1.28,1.69s.79,1.16,1.17,1.75a31.61,31.61,0,0,1,3.59,8,28.15,28.15,0,0,1-.83,18.1c-.27.7-.56,1.38-.88,2s-.63,1.29-1.06,2a25.47,25.47,0,0,1-2.64,3.72,28.56,28.56,0,0,1-6.57,5.79,28.21,28.21,0,0,1-8,3.51,29.21,29.21,0,0,1-8.39.83l-1.55-.07a10.33,10.33,0,0,1,.9-20.65l.65.05a9.08,9.08,0,0,0,2.45,0,7.26,7.26,0,0,0,2.16-.77A7.48,7.48,0,0,0,162,99a6.78,6.78,0,0,0,.73-.88,2.39,2.39,0,0,0,.3-.52,3.48,3.48,0,0,0,.28-.59,7,7,0,0,0,.39-4.75,10,10,0,0,0-1.16-2.64l-.44-.67-.47-.64a7,7,0,0,0-.84-.9A10.6,10.6,0,0,0,155.57,85a10.33,10.33,0,0,0-5.84.85,12.3,12.3,0,0,0-4.82,3.85,11.11,11.11,0,0,0-2.1,5.68c0,.26,0,.52,0,.78l0,.38a3.5,3.5,0,0,0,0,.5l.06,2.69.15,5.39c.06,1.65.09,4,0,6s-.28,4.25-.57,6.37a58.1,58.1,0,0,1-3.26,12.53A57.11,57.11,0,0,1,133,141.71a56,56,0,0,1-8.72,10c-1.64,1.52-3.47,2.82-5.26,4.18a14.81,14.81,0,0,1-1.39,1l-1.43.89a31.47,31.47,0,0,1-2.92,1.68l-3,1.49a14.94,14.94,0,0,1-1.54.67l-1.57.61a55.66,55.66,0,0,1-6.37,2.07,63.52,63.52,0,0,1-13.08,1.84,65,65,0,0,1-6.55-.07c-1.08-.09-2.15-.21-3.23-.32l-1.62-.17-1.6-.27c-1.07-.18-2.14-.36-3.2-.56L68.37,164c-1.06-.23-2.09-.55-3.12-.88s-2.08-.61-3.09-1a74,74,0,0,1-11.9-5.51,64.93,64.93,0,0,1-10.64-8A61.1,61.1,0,0,1,35,143.89c-.74-.84-1.48-1.68-2.16-2.57s-1.38-1.75-2-2.67A63.61,63.61,0,0,1,24.28,127a66.51,66.51,0,0,1-5.38-25.71l0-21.69v-1l0-.71c0-.53,0-1,.1-1.58s.14-1,.23-1.57a21,21,0,0,1,2.05-6,21.37,21.37,0,0,1,8.76-8.91,21.82,21.82,0,0,1,6-2.15,21,21,0,0,1,3.14-.37l.79,0h1.3l5.37.07,21.53.25,21.61.31a12.23,12.23,0,1,1-.36,24.46Z"/></g></g></svg>
