<svg xmlns="http://www.w3.org/2000/svg" viewBox="0 0 650 250"><defs><style>.cls-1{fill:#aa8dc1;}</style></defs><title>logo_stort</title><g id="logo"><g id="fund_endeliug_logo" data-name="fund endeliug logo"><path class="cls-1" d="M219.28,125.59l-25.46-.37-25.56-.29-6.41-.09-.8,0c-.2,0-.09,0-.05,0a.33.33,0,0,0,.14,0,2.8,2.8,0,0,0,.56-.08,3.08,3.08,0,0,0,1.1-.39,3.66,3.66,0,0,0,1.55-1.59,3.84,3.84,0,0,0,.36-1.1.89.89,0,0,0,0-.28,1.24,1.24,0,0,0,0-.27v-.07s0-.08,0,0v1.21l-.06,25.38a49.75,49.75,0,0,0,4,19.32,45.9,45.9,0,0,0,4.77,8.53c.46.68,1,1.31,1.46,2s1,1.25,1.56,1.86a44.42,44.42,0,0,0,3.45,3.55,48.61,48.61,0,0,0,7.86,5.9,58.46,58.46,0,0,0,9.07,4.29c.78.32,1.61.52,2.42.8a22.72,22.72,0,0,0,2.44.71l2.47.62,2.51.46,1.25.23,1.26.14,2.51.28a46.62,46.62,0,0,0,5,.08,47.34,47.34,0,0,0,9.68-1.31,41.9,41.9,0,0,0,4.53-1.43l1.11-.41a7.92,7.92,0,0,0,1.08-.45l2.1-1a37.49,37.49,0,0,0,13.71-12.14,40.84,40.84,0,0,0,4.37-8.12,42.24,42.24,0,0,0,2.46-9c.23-1.56.4-3.12.49-4.7s.1-2.92.08-5.29l0-6.39V142.5l0-.65.08-1.3c.05-.87.12-1.73.19-2.59.21-1.72.6-3.44,1-5.15s1-3.34,1.62-5,1.44-3.18,2.28-4.71c.45-.74.91-1.48,1.38-2.21a21.47,21.47,0,0,1,1.49-2.14,40.38,40.38,0,0,1,16.2-12.59,23.87,23.87,0,0,1,2.42-1c.84-.27,1.67-.52,2.51-.77a35.6,35.6,0,0,1,5.17-1,16.38,16.38,0,0,1,2.63-.24c.89,0,1.77-.07,2.66-.08a51.94,51.94,0,0,1,5.28.43c1.74.3,3.45.73,5.15,1.15s3.26,1.18,4.86,1.83a36.66,36.66,0,0,1,9,5.74,33.93,33.93,0,0,1,3.9,4c.58.72,1,1.33,1.52,2s.93,1.38,1.39,2.08a37.18,37.18,0,0,1,4.24,9.45,33.21,33.21,0,0,1-1,21.45,24.79,24.79,0,0,1-1,2.4A26.34,26.34,0,0,1,328,156a31.85,31.85,0,0,1-3.13,4.41,33.71,33.71,0,0,1-7.79,6.85,33.07,33.07,0,0,1-9.52,4.16,34,34,0,0,1-9.94,1l-1.84-.08a12.24,12.24,0,1,1,1.07-24.46l.77.05a10.38,10.38,0,0,0,2.9,0A8.44,8.44,0,0,0,303,147a9.24,9.24,0,0,0,2.3-1.78,10.45,10.45,0,0,0,.87-1.05,3.69,3.69,0,0,0,.35-.62,5.62,5.62,0,0,0,.34-.7,8.35,8.35,0,0,0,.45-5.63,11.9,11.9,0,0,0-1.37-3.13l-.52-.79-.56-.75a7.57,7.57,0,0,0-1-1.07,12.6,12.6,0,0,0-6.23-2.79,12.26,12.26,0,0,0-6.92,1,14.41,14.41,0,0,0-5.7,4.57,13.19,13.19,0,0,0-2.5,6.73c0,.3,0,.61,0,.91l0,.46a4.22,4.22,0,0,0,0,.58l.08,3.19.17,6.39c.07,2,.12,4.68,0,7.16s-.33,5-.68,7.55a69.31,69.31,0,0,1-3.86,14.84A68.12,68.12,0,0,1,271,195.86a66.38,66.38,0,0,1-10.33,11.87c-1.94,1.8-4.11,3.34-6.23,5a17,17,0,0,1-1.65,1.11l-1.7,1.06a38.25,38.25,0,0,1-3.46,2L244,218.62a17.24,17.24,0,0,1-1.82.79l-1.86.73a63.24,63.24,0,0,1-7.55,2.44,75.19,75.19,0,0,1-15.5,2.18,71.54,71.54,0,0,1-7.75-.08c-1.28-.1-2.56-.24-3.83-.37l-1.92-.21-1.9-.31c-1.26-.22-2.53-.43-3.78-.67l-3.74-.89c-1.25-.27-2.48-.65-3.7-1s-2.46-.73-3.66-1.19a86.22,86.22,0,0,1-14.09-6.52,76.81,76.81,0,0,1-12.61-9.42,74.69,74.69,0,0,1-5.49-5.62c-.87-1-1.75-2-2.55-3s-1.64-2.08-2.39-3.17a74.86,74.86,0,0,1-7.74-13.76A78.53,78.53,0,0,1,135.76,148l0-25.69v-1.19l0-.84c0-.62.06-1.25.11-1.87s.17-1.24.28-1.86a24.6,24.6,0,0,1,2.43-7.12A25.32,25.32,0,0,1,149,98.87a24.86,24.86,0,0,1,10.81-3l.94,0h1.54l6.36.09,25.51.29,25.6.37a14.49,14.49,0,0,1-.42,29Z"/><path class="cls-1" d="M21.5,225.52q-7.56,0-12.27-4.72a15.92,15.92,0,0,1-4.71-11.73L4.57,53.29A16.13,16.13,0,0,1,21,36.86l87.59,0a16.44,16.44,0,0,1,11.73,4.45,15.07,15.07,0,0,1,4.71,11.46,14.3,14.3,0,0,1-4.72,10.51,16.16,16.16,0,0,1-11.73,4.57l-72.77,0,2.43-3.23,0,54.17-1.88-3.51,60.1,0a16.45,16.45,0,0,1,11.72,4.46,15,15,0,0,1,4.71,11.45,14.23,14.23,0,0,1-4.72,10.51,16.13,16.13,0,0,1-11.72,4.58l-60.64,0,2.42-2.43,0,65.23a15.49,15.49,0,0,1-5,11.72A16.54,16.54,0,0,1,21.5,225.52Z"/><path class="cls-1" d="M429.57,77.84q19.94,0,30.32,8.36a42.53,42.53,0,0,1,14.27,22.24,114,114,0,0,1,3.9,30.86l0,69A16.21,16.21,0,0,1,473.45,220a16.6,16.6,0,0,1-23.18,0,16.13,16.13,0,0,1-4.58-11.72l0-69a52.54,52.54,0,0,0-2.29-16,22.26,22.26,0,0,0-8.21-11.46q-5.94-4.32-17-4.32-10.78,0-18.2,4.31a29.43,29.43,0,0,0-11.32,11.45,32.77,32.77,0,0,0-3.91,16l0,69A16.17,16.17,0,0,1,380.2,220,16.6,16.6,0,0,1,357,220a16.13,16.13,0,0,1-4.58-11.72l0-111.31a16.21,16.21,0,0,1,4.58-11.73,16.6,16.6,0,0,1,23.18,0A16.16,16.16,0,0,1,384.82,97v11.59l-4.05-.81a53,53,0,0,1,7-9.84,66.65,66.65,0,0,1,10.78-9.83,54.88,54.88,0,0,1,14-7.41A49.43,49.43,0,0,1,429.57,77.84Z"/><path class="cls-1" d="M629.83,25.35a15.69,15.69,0,0,1,11.59,4.59A16,16,0,0,1,646,41.8l-.06,166.56a16.17,16.17,0,0,1-4.58,11.72,16.6,16.6,0,0,1-23.18,0,16.13,16.13,0,0,1-4.58-11.72V195.14l5.92,2.43q0,3.5-3.77,8.49a51.32,51.32,0,0,1-10.25,9.83,63,63,0,0,1-15.23,8.22,52.6,52.6,0,0,1-19,3.36,61.69,61.69,0,0,1-33.69-9.58,67.24,67.24,0,0,1-23.84-26.42Q505,174.63,505,152.79q0-22.09,8.78-38.94a68,68,0,0,1,23.59-26.41,59.33,59.33,0,0,1,32.88-9.55,62.11,62.11,0,0,1,21.29,3.51,63.71,63.71,0,0,1,16.85,8.9,50.82,50.82,0,0,1,11,10.92q3.9,5.52,3.91,9.3l-9.71,3.5,0-72.23a16.19,16.19,0,0,1,4.58-11.73A15.5,15.5,0,0,1,629.83,25.35Zm-54.5,172.47a36.57,36.57,0,0,0,20.76-5.92A40,40,0,0,0,610,175.73a51.66,51.66,0,0,0,5-22.9,52.33,52.33,0,0,0-5-23.18,40.14,40.14,0,0,0-13.88-16.18,36.6,36.6,0,0,0-20.75-5.94,36.09,36.09,0,0,0-20.48,5.93A40.1,40.1,0,0,0,541,129.62a52.22,52.22,0,0,0-5,23.18,51.56,51.56,0,0,0,5,22.91,40,40,0,0,0,13.87,16.18A36.09,36.09,0,0,0,575.33,197.82Z"/></g></g></svg>
